HIERARCHY
ROOT Hips
{
	OFFSET -14.64140 90.27770 -84.91600
	CHANNELS 6 Xposition Yposition Zposition Zrotation Xrotation Yrotation
	JOINT Spine
	{
		OFFSET 0.00000 13.20850 -1.60436
		CHANNELS 3 Zrotation Xrotation Yrotation
		JOINT Spine1
		{
			OFFSET 0.00000 8.61716 0.00000
			CHANNELS 3 Zrotation Xrotation Yrotation
			JOINT Spine2
			{
				OFFSET 0.00000 8.61717 0.00000
				CHANNELS 3 Zrotation Xrotation Yrotation
				JOINT Spine3
				{
					OFFSET 0.00000 8.61717 0.00000
					CHANNELS 3 Zrotation Xrotation Yrotation
					JOINT Neck
					{
						OFFSET 0.00000 11.07920 1.10792
						CHANNELS 3 Zrotation Xrotation Yrotation
						JOINT Neck1
						{
							OFFSET 0.00000 7.08032 0.00000
							CHANNELS 3 Zrotation Xrotation Yrotation
							JOINT Head
							{
								OFFSET 0.00000 7.08031 0.00000
								CHANNELS 3 Zrotation Xrotation Yrotation
								End site
								{
									OFFSET 0.00000 0.00000 0.00000
								}
							}
						}
					}
					JOINT RightShoulder
					{
						OFFSET -0.01000 7.91373 5.19711
						CHANNELS 3 Zrotation Xrotation Yrotation
						JOINT RightArm
						{
							OFFSET -18.41580 0.00000 0.00000
							CHANNELS 3 Zrotation Xrotation Yrotation
							JOINT RightForeArm
							{
								OFFSET -29.11090 0.00000 0.00000
								CHANNELS 3 Zrotation Xrotation Yrotation
								JOINT RightHand
								{
									OFFSET -24.65040 0.00000 0.00000
									CHANNELS 3 Zrotation Xrotation Yrotation
									JOINT RightHandThumb1
									{
										OFFSET -5.35114 -0.85590 3.97906
										CHANNELS 3 Zrotation Xrotation Yrotation
										JOINT RightHandThumb2
										{
											OFFSET -4.52789 0.00000 0.00000
											CHANNELS 3 Zrotation Xrotation Yrotation
											JOINT RightHandThumb3
											{
												OFFSET -2.46976 0.00000 0.00000
												CHANNELS 3 Zrotation Xrotation Yrotation
												End site
												{
													OFFSET 0.00000 0.00000 0.00000
												}
											}
										}
									}
									JOINT RightHandIndex1
									{
										OFFSET -14.26970 0.00000 2.88139
										CHANNELS 3 Zrotation Xrotation Yrotation
										JOINT RightHandIndex2
										{
											OFFSET -5.48836 0.00000 0.00000
											CHANNELS 3 Zrotation Xrotation Yrotation
											JOINT RightHandIndex3
											{
												OFFSET -3.01859 0.00000 0.00000
												CHANNELS 3 Zrotation Xrotation Yrotation
												End site
												{
													OFFSET 0.00000 0.00000 0.00000
												}
											}
										}
									}
									JOINT RightHandMiddle1
									{
										OFFSET -14.26970 0.00000 -0.09147
										CHANNELS 3 Zrotation Xrotation Yrotation
										JOINT RightHandMiddle2
										{
											OFFSET -6.17441 0.00000 0.00000
											CHANNELS 3 Zrotation Xrotation Yrotation
											JOINT RightHandMiddle3
											{
												OFFSET -3.56743 0.00000 0.00000
												CHANNELS 3 Zrotation Xrotation Yrotation
												End site
												{
													OFFSET 0.00000 0.00000 0.00000
												}
											}
										}
									}
									JOINT RightHandRing1
									{
										OFFSET -12.69180 0.00000 -3.06433
										CHANNELS 3 Zrotation Xrotation Yrotation
										JOINT RightHandRing2
										{
											OFFSET -5.62556 0.00000 0.00000
											CHANNELS 3 Zrotation Xrotation Yrotation
											JOINT RightHandRing3
											{
												OFFSET -3.56744 0.00000 0.00000
												CHANNELS 3 Zrotation Xrotation Yrotation
												End site
												{
													OFFSET 0.00000 0.00000 0.00000
												}
											}
										}
									}
									JOINT RightHandPinky1
									{
										OFFSET -11.11390 0.00000 -6.03719
										CHANNELS 3 Zrotation Xrotation Yrotation
										JOINT RightHandPinky2
										{
											OFFSET -4.52789 0.00000 0.00000
											CHANNELS 3 Zrotation Xrotation Yrotation
											JOINT RightHandPinky3
											{
												OFFSET -2.46976 0.00000 0.00000
												CHANNELS 3 Zrotation Xrotation Yrotation
												End site
												{
													OFFSET 0.00000 0.00000 0.00000
												}
											}
										}
									}
								}
							}
						}
					}
					JOINT LeftShoulder
					{
						OFFSET 0.01000 7.91373 5.19711
						CHANNELS 3 Zrotation Xrotation Yrotation
						JOINT LeftArm
						{
							OFFSET 18.41580 0.00000 0.00000
							CHANNELS 3 Zrotation Xrotation Yrotation
							JOINT LeftForeArm
							{
								OFFSET 29.11090 0.00000 0.00000
								CHANNELS 3 Zrotation Xrotation Yrotation
								JOINT LeftHand
								{
									OFFSET 24.65040 0.00000 0.00000
									CHANNELS 3 Zrotation Xrotation Yrotation
									JOINT LeftHandThumb1
									{
										OFFSET 5.35114 -0.85590 3.97906
										CHANNELS 3 Zrotation Xrotation Yrotation
										JOINT LeftHandThumb2
										{
											OFFSET 4.52789 0.00000 0.00000
											CHANNELS 3 Zrotation Xrotation Yrotation
											JOINT LeftHandThumb3
											{
												OFFSET 2.46977 0.00000 0.00000
												CHANNELS 3 Zrotation Xrotation Yrotation
												End site
												{
													OFFSET 0.00000 0.00000 0.00000
												}
											}
										}
									}
									JOINT LeftHandIndex1
									{
										OFFSET 14.26970 0.00000 2.88139
										CHANNELS 3 Zrotation Xrotation Yrotation
										JOINT LeftHandIndex2
										{
											OFFSET 5.48836 0.00000 0.00000
											CHANNELS 3 Zrotation Xrotation Yrotation
											JOINT LeftHandIndex3
											{
												OFFSET 3.01859 0.00000 0.00000
												CHANNELS 3 Zrotation Xrotation Yrotation
												End site
												{
													OFFSET 0.00000 0.00000 0.00000
												}
											}
										}
									}
									JOINT LeftHandMiddle1
									{
										OFFSET 14.26970 0.00000 -0.09147
										CHANNELS 3 Zrotation Xrotation Yrotation
										JOINT LeftHandMiddle2
										{
											OFFSET 6.17440 0.00000 0.00000
											CHANNELS 3 Zrotation Xrotation Yrotation
											JOINT LeftHandMiddle3
											{
												OFFSET 3.56744 0.00000 0.00000
												CHANNELS 3 Zrotation Xrotation Yrotation
												End site
												{
													OFFSET 0.00000 0.00000 0.00000
												}
											}
										}
									}
									JOINT LeftHandRing1
									{
										OFFSET 12.69180 0.00000 -3.06433
										CHANNELS 3 Zrotation Xrotation Yrotation
										JOINT LeftHandRing2
										{
											OFFSET 5.62556 0.00000 0.00000
											CHANNELS 3 Zrotation Xrotation Yrotation
											JOINT LeftHandRing3
											{
												OFFSET 3.56744 0.00000 0.00000
												CHANNELS 3 Zrotation Xrotation Yrotation
												End site
												{
													OFFSET 0.00000 0.00000 0.00000
												}
											}
										}
									}
									JOINT LeftHandPinky1
									{
										OFFSET 11.11390 0.00000 -6.03719
										CHANNELS 3 Zrotation Xrotation Yrotation
										JOINT LeftHandPinky2
										{
											OFFSET 4.52789 0.00000 0.00000
											CHANNELS 3 Zrotation Xrotation Yrotation
											JOINT LeftHandPinky3
											{
												OFFSET 2.46976 0.00000 0.00000
												CHANNELS 3 Zrotation Xrotation Yrotation
												End site
												{
													OFFSET 0.00000 0.00000 0.00000
												}
											}
										}
									}
								}
							}
						}
					}
					JOINT pCube4
					{
						OFFSET 0.00000 10.91090 1.10792
						CHANNELS 3 Zrotation Xrotation Yrotation
						End site
						{
							OFFSET 0.00000 0.00000 0.00000
						}
					}
				}
			}
		}
	}
	JOINT RightUpLeg
	{
		OFFSET -9.98441 0.00000 0.00000
		CHANNELS 3 Zrotation Xrotation Yrotation
		JOINT RightLeg
		{
			OFFSET 0.00000 -42.11790 0.00000
			CHANNELS 3 Zrotation Xrotation Yrotation
			JOINT RightFoot
			{
				OFFSET 0.00000 -45.00020 -0.00001
				CHANNELS 3 Zrotation Xrotation Yrotation
				JOINT RightForeFoot
				{
					OFFSET 0.00000 -3.74820 0.00000
					CHANNELS 3 Zrotation Xrotation Yrotation
					JOINT RightToeBase
					{
						OFFSET 0.00000 0.06325 14.43120
						CHANNELS 3 Zrotation Xrotation Yrotation
						End site
						{
							OFFSET 0.00000 0.00000 0.00000
						}
					}
				}
			}
		}
	}
	JOINT LeftUpLeg
	{
		OFFSET 9.98441 0.00000 0.00000
		CHANNELS 3 Zrotation Xrotation Yrotation
		JOINT LeftLeg
		{
			OFFSET 0.00000 -42.11800 0.00000
			CHANNELS 3 Zrotation Xrotation Yrotation
			JOINT LeftFoot
			{
				OFFSET 0.00000 -45.00070 0.00000
				CHANNELS 3 Zrotation Xrotation Yrotation
				JOINT LeftForeFoot
				{
					OFFSET 0.00000 -3.74824 0.00000
					CHANNELS 3 Zrotation Xrotation Yrotation
					JOINT LeftToeBase
					{
						OFFSET 0.00000 0.06325 14.43110
						CHANNELS 3 Zrotation Xrotation Yrotation
						End site
						{
							OFFSET 0.00000 0.00000 0.00000
						}
					}
				}
			}
		}
	}
}
MOTION
Frames: 4
Frame Time: 0.050000
0.0 0.0 0.0 0.0 0.0 0.0 -1.3377197781797394 0.7459300341028157 -0.9961964538246177 -0.9282267600444576 3.8760720815494376 0.3650821080872309 -1.2025806604872553 -1.7459770268789963 -0.7768924025419561 0.9662585833648462 0.5200756127749874 -0.7882666966372697 0.8197921885264678 12.429065030818336 -2.628951613472705 0.02090985442203681 -0.6861681013714614 -8.045301432601617 0.9304775112276042 -16.173267039506843 -0.6593657782560964 -4.603528074623459 1.499361497966776 -15.691028968222644 72.8065827702128 23.01872781196081 3.6564432180222943 2.321578654519345 2.0182580129460246 41.44040864630649 21.130329804107987 -0.10211001996939613 -3.870208121102493 4.52871 -0.12703 -1.59312 -4.64595e-06 9.01534e-06 -56.2342 8.23465e-06 -9.55045e-07 -56.2342 -38.7697 2.616e-06 -3.03728e-06 1.51694e-05 2.54582e-06 3.19778e-06 -3.36779e-06 6.40269e-06 -1.74067e-06 -36.6938 -3.44578e-06 4.82161e-06 1.03628e-05 2.25643e-06 -1.00237e-06 -1.59028e-15 3.18055e-15 1.90833e-14 -19.7583 1.99729e-06 9.82298e-07 1.19088e-05 -1.70535e-06 -1.47446e-06 -7.95139e-16 3.57812e-15 3.18055e-15 24.0542 -1.29415e-06 -2.03572e-07 28.8651 4.69993e-06 -2.49464e-06 28.8651 4.67541e-06 2.50252e-06 3.5517050361206883 0.9502474192367637 13.46350235025557 -71.78395554395242 26.41720958740063 -0.20640921371593599 -3.8535510561210664 -8.741917890707063 -42.23423166809554 -14.188923945381777 -0.637343993288793 2.9394815712020557 -0.474211 0.0677175 -8.12381 -7.57701e-06 -7.52602e-07 44.5675 -2.34874e-06 -9.76287e-07 44.5675 12.4601 -8.06117e-07 4.96022e-06 -1.98259e-05 -5.83324e-07 -1.40447e-07 -3.18055e-15 1.59028e-15 -9.54166e-15 11.1059 -5.13129e-07 -3.38467e-06 3.12111e-07 1.50825e-07 1.16352e-06 5.56875e-08 -1.53149e-07 -1.37717e-07 4.77241 1.48801e-06 -1.13665e-06 -2.79682e-07 7.26536e-07 7.29834e-07 -1.95777e-07 5.08575e-07 5.10883e-07 -5.60077 7.82297e-07 -2.03231e-07 -6.72092 -3.47366e-06 4.68464e-06 -6.72092 -1.30631e-08 -7.87263e-07 -1.19271e-15 1.09925e-15 -3.18055e-15 8.04465 3.49397 -19.2195 -2.21424e-05 10.395 0.0142586 -5.62103 -15.6599 3.19225 3.97569e-16 7.95139e-16 -1.59028e-15 1.81331e-08 4.69756 -4.30096e-07 12.4594 -8.23857 6.88324 1.34357e-05 46.3794 0.00174233 -4.32522 -14.7485 -3.83531 3.18055e-15 -3.18055e-15 9.54166e-15 1.35867e-07 -10.745 -2.59575e-06
0.0 0.0 0.0 0.0 0.0 0.0 -1.2222342573227363 0.8095360930026227 -1.022315340311532 -0.9282722802823938 3.8786801349120914 0.3658411494501099 -1.2020181520103528 -1.712662797041494 -0.7562627519821494 1.0026293225902478 0.5157500689152739 -0.7819808354028636 0.8921185130153745 12.371597987984108 -2.8551594704680516 0.05533227167949501 -0.7691117906687562 -8.524897802369395 1.0354662149595457 -16.34495957102618 -0.7068045933436476 -4.693720819220926 1.5256430926950701 -15.80396995468669 73.03373524067239 22.620182506144527 3.4212894206740656 1.9790730169212132 1.9872419905212613 42.01875937273454 20.69889347212571 -0.09719802054076845 -3.8589994996842716 4.52871 -0.12703 -1.59312 -4.64595e-06 9.01534e-06 -56.2342 8.23465e-06 -9.55045e-07 -56.2342 -38.7697 2.616e-06 -3.03728e-06 1.51694e-05 2.54582e-06 3.19778e-06 -3.36779e-06 6.40269e-06 -1.74067e-06 -36.6938 -3.44578e-06 4.82161e-06 1.03628e-05 2.25643e-06 -1.00237e-06 -1.59028e-15 3.18055e-15 1.90833e-14 -19.7583 1.99729e-06 9.82298e-07 1.19088e-05 -1.70535e-06 -1.47446e-06 -7.95139e-16 3.57812e-15 3.18055e-15 24.0542 -1.29415e-06 -2.03572e-07 28.8651 4.69993e-06 -2.49464e-06 28.8651 4.67541e-06 2.50252e-06 3.5097058612980803 0.9521329534917575 13.500849984537576 -72.0306693189756 26.874493205501732 -0.03299938558654128 -2.192140918037657 -9.02571227608945 -42.70578952816206 -13.960199825436337 -0.7490404965914139 3.13562453900326 -0.474211 0.0677175 -8.12381 -7.57701e-06 -7.52602e-07 44.5675 -2.34874e-06 -9.76287e-07 44.5675 12.4601 -8.06117e-07 4.96022e-06 -1.98259e-05 -5.83324e-07 -1.40447e-07 -3.18055e-15 1.59028e-15 -9.54166e-15 11.1059 -5.13129e-07 -3.38467e-06 3.12111e-07 1.50825e-07 1.16352e-06 5.56875e-08 -1.53149e-07 -1.37717e-07 4.77241 1.48801e-06 -1.13665e-06 -2.79682e-07 7.26536e-07 7.29834e-07 -1.95777e-07 5.08575e-07 5.10883e-07 -5.60077 7.82297e-07 -2.03231e-07 -6.72092 -3.47366e-06 4.68464e-06 -6.72092 -1.30631e-08 -7.87263e-07 -1.19271e-15 1.09925e-15 -3.18055e-15 8.04465 3.49397 -19.2195 -2.21424e-05 10.395 0.0142586 -5.62103 -15.6599 3.19225 3.97569e-16 7.95139e-16 -1.59028e-15 1.81331e-08 4.69756 -4.30096e-07 12.4594 -8.23857 6.88324 1.34357e-05 46.3794 0.00174233 -4.32522 -14.7485 -3.83531 3.18055e-15 -3.18055e-15 9.54166e-15 1.35867e-07 -10.745 -2.59575e-06
0.0 0.0 0.0 0.0 0.0 0.0 -1.1659628961981103 0.8538339876268972 -1.0434297408123643 -0.9313384751646249 3.8836549500662074 0.3661320644764074 -1.2075656834657313 -1.690821951669477 -0.7776577741247792 1.040763376204005 0.5130008470991618 -0.7816162116816773 0.9633073875392093 12.320079578686217 -3.076813266611344 0.09358016273571065 -0.8667517603625996 -8.961848950788562 1.1415572205187687 -16.546324201791023 -0.7524505438517596 -4.806621807701933 1.5539660839760712 -15.945438386246998 73.0850623203376 22.26918637803045 2.8460032639559456 1.5620938504332722 1.888094708774835 42.35264996019594 20.443258717727456 -0.09573669517174113 -3.8458377522324905 4.52871 -0.12703 -1.59312 -4.64595e-06 9.01534e-06 -56.2342 8.23465e-06 -9.55045e-07 -56.2342 -38.7697 2.616e-06 -3.03728e-06 1.51694e-05 2.54582e-06 3.19778e-06 -3.36779e-06 6.40269e-06 -1.74067e-06 -36.6938 -3.44578e-06 4.82161e-06 1.03628e-05 2.25643e-06 -1.00237e-06 -1.59028e-15 3.18055e-15 1.90833e-14 -19.7583 1.99729e-06 9.82298e-07 1.19088e-05 -1.70535e-06 -1.47446e-06 -7.95139e-16 3.57812e-15 3.18055e-15 24.0542 -1.29415e-06 -2.03572e-07 28.8651 4.69993e-06 -2.49464e-06 28.8651 4.67541e-06 2.50252e-06 3.493822145071288 0.9563580661588501 13.533813993476155 -72.18090826799057 27.319408684878105 0.1884267624458492 -1.172774307480478 -9.020739084725863 -42.841876742922814 -13.862153970576266 -0.7471716068250134 3.2313296583738818 -0.474211 0.0677175 -8.12381 -7.57701e-06 -7.52602e-07 44.5675 -2.34874e-06 -9.76287e-07 44.5675 12.4601 -8.06117e-07 4.96022e-06 -1.98259e-05 -5.83324e-07 -1.40447e-07 -3.18055e-15 1.59028e-15 -9.54166e-15 11.1059 -5.13129e-07 -3.38467e-06 3.12111e-07 1.50825e-07 1.16352e-06 5.56875e-08 -1.53149e-07 -1.37717e-07 4.77241 1.48801e-06 -1.13665e-06 -2.79682e-07 7.26536e-07 7.29834e-07 -1.95777e-07 5.08575e-07 5.10883e-07 -5.60077 7.82297e-07 -2.03231e-07 -6.72092 -3.47366e-06 4.68464e-06 -6.72092 -1.30631e-08 -7.87263e-07 -1.19271e-15 1.09925e-15 -3.18055e-15 8.04465 3.49397 -19.2195 -2.21424e-05 10.395 0.0142586 -5.62103 -15.6599 3.19225 3.97569e-16 7.95139e-16 -1.59028e-15 1.81331e-08 4.69756 -4.30096e-07 12.4594 -8.23857 6.88324 1.34357e-05 46.3794 0.00174233 -4.32522 -14.7485 -3.83531 3.18055e-15 -3.18055e-15 9.54166e-15 1.35867e-07 -10.745 -2.59575e-06
0.0 0.0 0.0 0.0 0.0 0.0 -1.162148455590751 0.8808307630996665 -1.0566404709997428 -0.9393283037434494 3.8917024473440356 0.3667266084967377 -1.2171281421862075 -1.6789302114679212 -0.8187771845891968 1.0624039936173508 0.5128851793246365 -0.7842930807819884 1.0064199813721597 12.277688239709493 -3.2171503478661987 0.12471931304168862 -0.966168103471119 -9.204178362312316 1.2165425640323557 -16.751847363408082 -0.7815905185149173 -4.933222546032836 1.5825457285899942 -16.082262656957212 72.95083397696716 21.994937178572698 2.0845899240558237 1.049053020052036 1.5945351822149787 42.34195428110712 20.274847195841982 -0.096588664472007 -3.8075703493856445 4.52871 -0.12703 -1.59312 -4.64595e-06 9.01534e-06 -56.2342 8.23465e-06 -9.55045e-07 -56.2342 -38.7697 2.616e-06 -3.03728e-06 1.51694e-05 2.54582e-06 3.19778e-06 -3.36779e-06 6.40269e-06 -1.74067e-06 -36.6938 -3.44578e-06 4.82161e-06 1.03628e-05 2.25643e-06 -1.00237e-06 -1.59028e-15 3.18055e-15 1.90833e-14 -19.7583 1.99729e-06 9.82298e-07 1.19088e-05 -1.70535e-06 -1.47446e-06 -7.95139e-16 3.57812e-15 3.18055e-15 24.0542 -1.29415e-06 -2.03572e-07 28.8651 4.69993e-06 -2.49464e-06 28.8651 4.67541e-06 2.50252e-06 3.5305484106646348 0.9651696854117197 13.57036688292376 -72.21525095260431 27.681523756010623 0.40849208273934434 -0.45110513622439796 -9.154143240095314 -42.67963190779596 -13.882490910366144 -0.7899274223314476 3.346448219817585 -0.474211 0.0677175 -8.12381 -7.57701e-06 -7.52602e-07 44.5675 -2.34874e-06 -9.76287e-07 44.5675 12.4601 -8.06117e-07 4.96022e-06 -1.98259e-05 -5.83324e-07 -1.40447e-07 -3.18055e-15 1.59028e-15 -9.54166e-15 11.1059 -5.13129e-07 -3.38467e-06 3.12111e-07 1.50825e-07 1.16352e-06 5.56875e-08 -1.53149e-07 -1.37717e-07 4.77241 1.48801e-06 -1.13665e-06 -2.79682e-07 7.26536e-07 7.29834e-07 -1.95777e-07 5.08575e-07 5.10883e-07 -5.60077 7.82297e-07 -2.03231e-07 -6.72092 -3.47366e-06 4.68464e-06 -6.72092 -1.30631e-08 -7.87263e-07 -1.19271e-15 1.09925e-15 -3.18055e-15 8.04465 3.49397 -19.2195 -2.21424e-05 10.395 0.0142586 -5.62103 -15.6599 3.19225 3.97569e-16 7.95139e-16 -1.59028e-15 1.81331e-08 4.69756 -4.30096e-07 12.4594 -8.23857 6.88324 1.34357e-05 46.3794 0.00174233 -4.32522 -14.7485 -3.83531 3.18055e-15 -3.18055e-15 9.54166e-15 1.35867e-07 -10.745 -2.59575e-06
